HIERARCHY
ROOT Hips
{
	OFFSET -0.001795 -0.223333 0.028219
	CHANNELS 6 Xposition Yposition Zposition Zrotation Yrotation Xrotation 
	JOINT LeftUpLeg
	{
		OFFSET 0.069520 -0.091406 -0.006815
		CHANNELS 3 Zrotation Yrotation Xrotation
		JOINT LeftLeg
		{
			OFFSET 0.034277 -0.375199 -0.004496
			CHANNELS 3 Zrotation Yrotation Xrotation
			JOINT LeftFoot
			{
				OFFSET -0.013596 -0.397961 -0.043693
				CHANNELS 3 Zrotation Yrotation Xrotation
				JOINT LeftToe
				{
					OFFSET 0.026358 -0.055791 0.119288
					CHANNELS 3 Zrotation Yrotation Xrotation
					End Site
					{
						OFFSET 0.000000 0.000000 0.000000
					}
				}
			}
		}
	}
	JOINT RightUpLeg
	{
		OFFSET -0.067670 -0.090522 -0.004320
		CHANNELS 3 Zrotation Yrotation Xrotation
		JOINT RightLeg
		{
			OFFSET -0.038290 -0.382569 -0.008850
			CHANNELS 3 Zrotation Yrotation Xrotation
			JOINT RightFoot
			{
				OFFSET 0.015774 -0.398415 -0.042312
				CHANNELS 3 Zrotation Yrotation Xrotation
				JOINT RightToe
				{
					OFFSET -0.025372 -0.048144 0.123348
					CHANNELS 3 Zrotation Yrotation Xrotation
					End Site
					{
						OFFSET 0.000000 0.000000 0.000000
					}
				}
			}
		}
	}
	JOINT Spine
	{
		OFFSET -0.002533 0.108963 -0.026696
		CHANNELS 3 Zrotation Yrotation Xrotation
		JOINT Spine1
		{
			OFFSET 0.005487 0.135180 0.001092
			CHANNELS 3 Zrotation Yrotation Xrotation
			JOINT Spine2
			{
				OFFSET 0.001457 0.052922 0.025425
				CHANNELS 3 Zrotation Yrotation Xrotation
				JOINT Neck
				{
					OFFSET -0.002778 0.213870 -0.042857
					CHANNELS 3 Zrotation Yrotation Xrotation
					JOINT Head
					{
						OFFSET 0.005152 0.064970 0.051349
						CHANNELS 3 Zrotation Yrotation Xrotation
						End Site
						{
							OFFSET 0.000000 0.000000 0.000000
						}
					}
				}
				JOINT LeftShoulder
				{
					OFFSET 0.078845 0.121749 -0.034090
					CHANNELS 3 Zrotation Yrotation Xrotation
					JOINT LeftArm
					{
						OFFSET 0.090977 0.030469 -0.008868
						CHANNELS 3 Zrotation Yrotation Xrotation
						JOINT LeftForeArm
						{
							OFFSET 0.259612 -0.012772 -0.027456
							CHANNELS 3 Zrotation Yrotation Xrotation
							JOINT LeftHand
							{
								OFFSET 0.249234 0.008986 -0.001171
								CHANNELS 3 Zrotation Yrotation Xrotation
								End Site
								{
									OFFSET 0.000000 0.000000 0.000000
								}
							}
						}
					}
				}
				JOINT RightShoulder
				{
					OFFSET -0.081759 0.118833 -0.038615
					CHANNELS 3 Zrotation Yrotation Xrotation
					JOINT RightArm
					{
						OFFSET -0.096012 0.032551 -0.009143
						CHANNELS 3 Zrotation Yrotation Xrotation
						JOINT RightForeArm
						{
							OFFSET -0.253742 -0.013329 -0.021401
							CHANNELS 3 Zrotation Yrotation Xrotation
							JOINT RightHand
							{
								OFFSET -0.255298 0.007772 -0.005559
								CHANNELS 3 Zrotation Yrotation Xrotation
								End Site
								{
									OFFSET 0.000000 0.000000 0.000000
								}
							}
						}
					}
				}
			}
		}
	}
}
MOTION
Frames: 9
Frame Time: 0.050000
0.005483 0.951994 -0.061414 -0.903415 0.324353 -6.209984 1.031003 0.820405 10.124026 3.872837 -0.107211 -4.785488 9.800789 20.175166 17.273309 0.000000 0.000000 0.000000 -0.810179 -0.651980 6.990353 -2.003544 0.230197 0.177666 -8.907139 -21.216687 17.518545 0.000000 0.000000 0.000000 3.403555 -0.578702 8.677808 -3.745226 1.564709 -23.001691 -1.211899 -0.267518 28.187411 -1.162298 2.466273 -31.037088 0.000000 0.000000 0.000000 10.803103 -29.666035 7.118355 11.929915 -55.697720 -9.401179 109.637961 -14.770275 -19.466537 0.000000 0.000000 0.000000 21.483335 14.677209 7.147243 75.757899 -2.063632 -11.581681 5.490142 33.873659 3.478367 0.000000 0.000000 0.000000 
0.005698 0.951834 -0.062808 -0.644050 0.147158 -5.807366 0.653440 0.827742 9.756578 3.958385 -0.096536 -5.033884 9.897974 20.293539 17.455610 0.000000 0.000000 0.000000 -1.170900 -0.574695 6.467520 -1.893552 0.213815 0.124723 -8.841566 -21.126906 17.358558 0.000000 0.000000 0.000000 3.407333 -0.555031 8.315481 -3.543066 1.509163 -22.950730 -1.163225 -0.347956 27.941247 -1.374065 2.546946 -31.220601 0.000000 0.000000 0.000000 10.557507 -29.577638 7.174957 11.305498 -54.633882 -8.821356 109.326993 -13.321947 -17.412504 0.000000 0.000000 0.000000 21.249558 15.403644 7.449353 76.018794 -2.235588 -11.697802 5.724011 33.551466 3.464136 0.000000 0.000000 0.000000 
0.005830 0.951802 -0.064208 -0.599532 0.335522 -5.733833 0.421595 0.858204 9.920499 4.291656 -0.071978 -5.683685 9.760913 20.118129 17.579987 0.000000 0.000000 0.000000 -1.112447 -0.596448 6.640743 -2.080980 0.201851 -0.449443 -8.911816 -21.220004 17.536467 0.000000 0.000000 0.000000 3.291908 -0.563299 8.513632 -3.335224 1.457674 -22.944314 -1.076014 -0.541025 27.772322 -1.689788 2.711196 -31.669004 0.000000 0.000000 0.000000 10.172212 -29.431696 7.241043 11.225076 -53.871575 -8.592093 109.358649 -12.414041 -16.270950 0.000000 0.000000 0.000000 20.809005 15.704071 7.538588 75.900790 -2.364826 -11.752637 6.608185 33.223439 3.647031 0.000000 0.000000 0.000000 
0.005920 0.951389 -0.065664 -0.382224 0.093347 -5.227097 -0.068717 0.886807 9.695354 4.670181 -0.043582 -6.383181 9.878415 20.259014 17.873462 0.000000 0.000000 0.000000 -1.332167 -0.540651 6.245515 -2.136220 0.176114 -0.961360 -8.806747 -21.073025 17.382187 0.000000 0.000000 0.000000 3.253932 -0.516464 7.833084 -3.188042 1.414382 -22.704803 -1.131243 -0.656474 27.555361 -2.007648 2.844254 -32.310386 0.000000 0.000000 0.000000 9.746326 -29.466172 7.372226 11.014041 -52.972899 -8.239486 108.181158 -11.347507 -14.488079 0.000000 0.000000 0.000000 20.859830 16.093044 7.662922 76.033306 -2.877436 -12.093778 7.028104 33.707805 3.803905 0.000000 0.000000 0.000000 
0.006089 0.950903 -0.067070 -0.368982 0.523454 -4.684617 0.158308 0.836941 9.437810 4.255426 0.043256 -7.249592 9.611251 19.922076 17.724685 0.000000 0.000000 0.000000 -1.484876 -0.510592 5.980639 -1.839228 0.111577 -1.603613 -9.025226 -21.372776 17.512498 0.000000 0.000000 0.000000 3.386063 -0.491894 7.268762 -3.036390 1.382172 -22.415954 -1.389824 -0.926441 27.330844 -2.122046 2.897883 -32.218175 0.000000 0.000000 0.000000 9.124135 -29.418576 7.538057 11.473254 -53.102441 -8.468058 107.528217 -11.168408 -14.087320 0.000000 0.000000 0.000000 21.546305 15.463728 7.379864 75.938564 -3.648881 -12.574179 7.055686 34.271928 3.891823 0.000000 0.000000 0.000000 
0.006263 0.950591 -0.068503 -0.404776 0.665060 -4.458634 -0.007230 0.843399 9.378921 4.606349 0.066935 -7.792118 9.528000 19.816585 17.788919 0.000000 0.000000 0.000000 -1.487789 -0.515889 6.030870 -1.765258 0.068090 -2.270495 -9.071805 -21.431253 17.631286 0.000000 0.000000 0.000000 3.178717 -0.483916 7.285897 -2.459253 1.232060 -22.455232 -1.384094 -1.407234 27.135219 -2.465343 3.010796 -32.399753 0.000000 0.000000 0.000000 8.335638 -29.169162 7.676786 12.224066 -53.289138 -8.753701 106.963273 -11.111365 -13.758193 0.000000 0.000000 0.000000 21.726530 15.545676 7.310039 75.737400 -4.467370 -13.085124 6.701017 34.791009 3.820548 0.000000 0.000000 0.000000 
0.006453 0.950105 -0.069861 -0.486091 0.745292 -4.420250 -0.055298 0.869343 9.639328 4.841762 0.110918 -8.510650 9.458621 19.729816 17.840030 0.000000 0.000000 0.000000 -1.562865 -0.530595 6.240716 -1.490372 0.012660 -2.858953 -9.078519 -21.435622 17.645555 0.000000 0.000000 0.000000 3.001957 -0.468353 7.200086 -1.825833 1.066972 -22.362324 -1.307512 -1.718820 26.897024 -2.842133 3.149098 -31.919107 0.000000 0.000000 0.000000 7.918563 -28.804484 7.691915 12.577894 -53.746284 -8.969154 106.238669 -11.139413 -13.530455 0.000000 0.000000 0.000000 21.733724 15.970889 7.459205 75.530233 -4.792536 -13.250824 5.802468 34.778642 3.515235 0.000000 0.000000 0.000000 
0.006656 0.949563 -0.071208 -0.364687 1.041010 -4.357107 -0.044543 0.912167 10.181898 4.600624 0.215073 -9.823784 9.196209 19.401729 17.939120 0.000000 0.000000 0.000000 -2.025060 -0.518738 6.422699 -0.897473 -0.061653 -3.379858 -9.198746 -21.601016 17.623978 0.000000 0.000000 0.000000 2.796179 -0.447204 7.049170 -1.199447 0.908369 -22.268490 -1.356412 -2.057778 26.482330 -3.301405 3.350066 -31.615910 0.000000 0.000000 0.000000 7.423589 -28.950823 7.866831 12.778896 -54.020117 -9.089177 105.479893 -10.683180 -12.736889 0.000000 0.000000 0.000000 21.754049 16.256544 7.559778 75.596644 -4.776033 -13.209555 4.480879 33.979758 3.004475 0.000000 0.000000 0.000000 
0.006861 0.949262 -0.072556 -0.462309 1.444450 -4.411818 0.099962 0.905313 10.361957 4.556929 0.248984 -10.298738 8.958909 19.106615 17.824011 0.000000 0.000000 0.000000 -1.929894 -0.540784 6.531242 -0.858395 -0.071134 -3.525935 -9.398418 -21.877642 17.768195 0.000000 0.000000 0.000000 2.914320 -0.430868 6.692823 -1.270609 0.931439 -22.003850 -1.479512 -2.462307 26.364793 -3.436226 3.393366 -31.309730 0.000000 0.000000 0.000000 7.079398 -29.367979 8.063940 13.304602 -54.653757 -9.446601 105.277429 -10.777443 -12.742552 0.000000 0.000000 0.000000 22.313186 16.016403 7.428510 75.290355 -5.359348 -13.532427 3.705758 33.706647 2.738958 0.000000 0.000000 0.000000 
